<?xml version="1.0" encoding="UTF-8" standalone="no"?>
<svg
   xmlns:dc="http://purl.org/dc/elements/1.1/"
   xmlns:cc="http://creativecommons.org/ns#"
   xmlns:rdf="http://www.w3.org/1999/02/22-rdf-syntax-ns#"
   xmlns:svg="http://www.w3.org/2000/svg"
   xmlns="http://www.w3.org/2000/svg"
   xmlns:sodipodi="http://sodipodi.sourceforge.net/DTD/sodipodi-0.dtd"
   xmlns:inkscape="http://www.inkscape.org/namespaces/inkscape"
   sodipodi:docname="nerf_favicon.svg"
   inkscape:version="1.0beta2 (2b71d25, 2019-12-03)"
   id="svg1321"
   version="1.1"
   viewBox="0 0 29.75671 28.937298"
   height="28.937298mm"
   width="29.75671mm">
  <defs
     id="defs1315" />
  <sodipodi:namedview
     inkscape:window-maximized="0"
     inkscape:window-y="153"
     inkscape:window-x="0"
     inkscape:window-height="1027"
     inkscape:window-width="1600"
     fit-margin-bottom="0"
     fit-margin-right="0"
     fit-margin-left="0"
     fit-margin-top="0"
     showgrid="false"
     inkscape:document-rotation="0"
     inkscape:current-layer="layer1"
     inkscape:document-units="mm"
     inkscape:cy="263.25611"
     inkscape:cx="139.09028"
     inkscape:zoom="0.35"
     inkscape:pageshadow="2"
     inkscape:pageopacity="0.0"
     borderopacity="1.0"
     bordercolor="#666666"
     pagecolor="#ffffff"
     id="base" />
  <metadata
     id="metadata1318">
    <rdf:RDF>
      <cc:Work
         rdf:about="">
        <dc:format>image/svg+xml</dc:format>
        <dc:type
           rdf:resource="http://purl.org/dc/dcmitype/StillImage" />
        <dc:title></dc:title>
      </cc:Work>
    </rdf:RDF>
  </metadata>
  <g
     transform="translate(-69.032363,-78.513488)"
     id="layer1"
     inkscape:groupmode="layer"
     inkscape:label="Camada 1">
    <g
       transform="matrix(0.26458333,0,0,0.26458333,57.661402,-102.27019)"
       id="Layer1050">
      <path
         inkscape:connector-curvature="0"
         d="m 63.924,683.2769 c 11.7193,0 23.4739,0 35.2051,0 11.7309,0 23.4859,0 35.2404,0 12.8923,0 22.3072,12.3288 20.9421,26.7356 -1.0944,11.5519 -2.1482,22.6663 -3.1604,33.3429 -0.9736,10.2719 -1.9134,20.1939 -2.8184,29.7437 -1.0383,10.9611 -10.5481,19.5599 -21.139,19.5471 -9.6466,-0.0114 -19.3128,-0.0233 -28.9497,-0.0348 -9.6371,-0.0114 -19.2839,-0.0233 -28.9208,-0.0347 -10.5716,-0.0128 -20.0498,-8.623 -21.1095,-19.5726 -0.9231,-9.5397 -1.8811,-19.4514 -2.8752,-29.7233 -1.0322,-10.6654 -2.1073,-21.7679 -3.2242,-33.3075 -1.392,-14.3806 7.9404,-26.6964 20.8096,-26.6964 z"
         style="fill:#ffcb00;fill-rule:evenodd"
         id="path630" />
      <g
         id="Layer1051">
        <g
           id="Layer1052">
          <path
             inkscape:connector-curvature="0"
             d="m 94.6001,697.3381 c -3.3962,6.569 -5.9224,13.5072 -8.2906,20.4993 -2.3541,6.953 -4.9998,13.8589 -7.1767,20.8634 -0.9219,2.9668 -1.6651,5.6927 -1.0988,8.7545 0.6015,3.2489 2.6173,6.1404 3.823,9.1854 2.9556,7.466 0.3014,14.7917 -2.9923,21.6794 -0.1677,0.3514 0.3151,0.5559 0.8041,0.5635 h 0.0544 c 0.3424,-0.005 0.676,-0.1074 0.7798,-0.3244 2.7789,-5.8113 5.3532,-12.1959 4.0411,-18.706 -0.6189,-3.0698 -2.058,-5.9517 -3.4747,-8.7151 -2.0549,-3.4597 -2.1718,-7.093 -1.1809,-10.8271 0.7738,-3.7404 2.3069,-7.3769 3.5601,-10.9735 1.2277,-3.5228 2.544,-7.0364 3.7282,-10.5745 2.4504,-7.3206 4.8058,-14.1608 8.3576,-21.0305 0.3711,-0.7169 -0.6587,-0.9273 -0.9343,-0.3944 z"
             style="fill:#1b1918;fill-rule:evenodd"
             id="path632" />
          <path
             inkscape:connector-curvature="0"
             d="m 105.9161,757.839 c -1.3936,-6.0125 -5.8912,-10.4787 -8.1315,-16.1099 -2.7488,-6.9088 -1.7192,-15.1354 -1.1343,-22.3569 0.6015,-7.4349 3.6945,-14.0973 5.1193,-21.3464 0.11,-0.5607 -0.8577,-0.576 -0.9845,0.0702 -1.4293,7.2706 -4.4653,13.9007 -5.1193,21.3463 -0.6048,6.8811 -1.6018,14.3577 0.2959,21.0836 1.7414,6.1692 6.1868,10.5548 8.0838,16.6856 2.1793,7.0424 -0.1375,13.8091 -1.7095,20.6619 -0.1257,0.5458 1.5505,0.6443 1.6988,0 1.5637,-6.8165 3.5179,-12.9762 1.8813,-20.0344 z"
             style="fill:#1b1918;fill-rule:evenodd"
             id="path634" />
          <path
             inkscape:connector-curvature="0"
             d="m 109.9198,759.8741 c -0.2102,-7.133 -4.2401,-11.2821 -7.9193,-16.8181 -3.9876,-6 -3.5075,-13.8934 -2.6439,-20.7608 1.025,-8.1429 3.2063,-15.9205 5.07,-23.8918 0.1268,-0.5441 -0.8079,-0.7381 -0.958,-0.0944 -1.7906,7.6591 -4.0401,15.2146 -5.2344,23.0017 -0.9915,6.4641 -1.9887,14.1292 1.0478,20.109 1.1556,2.2782 2.0897,4.41 3.6839,6.3892 2.6435,3.2829 4.4332,6.0688 5.0974,10.3296 0.4962,3.1797 0.5182,5.2771 -0.122,8.3849 -0.7968,3.8673 -0.8846,7.7795 -2.1775,11.5136 -0.2307,0.666 1.4481,0.7888 1.6383,0.2392 2.0823,-6.0154 2.7069,-11.9984 2.5177,-18.4021 z"
             style="fill:#1b1918;fill-rule:evenodd"
             id="path636" />
          <path
             inkscape:connector-curvature="0"
             d="m 118.9319,754.3449 c -1.9832,-6.8896 -8.8644,-10.9091 -12.0277,-17.1638 -1.5005,-2.9663 -2.1841,-6.3921 -2.4881,-9.6522 -0.3114,-3.3315 -0.419,-6.6812 -0.3975,-10.0257 0.1882,-5.4102 1.8112,-12.5236 3.3327,-18.733 0.2043,-0.6063 -0.7363,-0.7012 -0.9343,-0.1564 -1.4354,5.4837 -3.5793,13.8488 -3.6437,17.2687 -0.2112,6.3034 0.2334,13.279 2.039,19.3018 1.9226,6.8732 8.3229,10.7879 11.5038,16.9169 1.9181,3.6962 2.0987,8.1185 2.0799,12.1923 -0.0208,4.4868 -0.2191,9.1594 -1.0016,13.5799 -0.1009,0.5684 1.5843,0.6461 1.6988,0 0.6922,-3.9092 1.1933,-8.2386 1.2001,-12.5278 v -0.0978 c -5e-4,-3.7728 -0.3855,-7.5119 -1.3614,-10.9029 z"
             style="fill:#1b1918;fill-rule:evenodd"
             id="path638" />
          <path
             inkscape:connector-curvature="0"
             d="m 90.0878,749.2253 c -0.1977,-0.2823 0.8696,-0.5867 1.046,-0.3343 1.4111,2.7851 3.711,4.3134 4.0937,7.4931 0.1103,0.2236 -1.0623,0.8095 -1.2224,0.4856 0.0127,-3.1531 -2.7879,-4.6108 -3.9173,-7.6444 z"
             style="fill:#1b1918;fill-rule:evenodd"
             id="path640" />
          <path
             inkscape:connector-curvature="0"
             d="m 87.319,734.8573 c 0.0157,-0.1672 0.1638,-0.2411 0.3457,-0.2443 l 0.0331,2e-4 c 0.3241,0.009 0.7339,0.2298 0.7043,0.5428 -0.522,3.6915 -0.4052,4.0044 -0.0264,7.353 -0.3779,0.3234 -1.054,0.0428 -1.0951,-0.1014 -0.2441,-1.5726 -0.3322,-2.525 -0.3257,-3.4007 0.0085,-1.1257 0.1732,-2.1241 0.3641,-4.1496 z"
             style="fill:#1b1918;fill-rule:evenodd"
             id="path642" />
          <path
             inkscape:connector-curvature="0"
             d="m 95.3377,765.5654 c 0.1549,-0.7505 1.3527,-0.3298 1.1992,0.3957 -0.1716,2.8144 -2.0369,8.1811 -2.8199,10.8903 0.0568,0.0626 -1.3868,0.2495 -1.1844,-0.4792 0.7752,-2.6819 2.6353,-8.0209 2.8051,-10.8068 z"
             style="fill:#1b1918;fill-rule:evenodd"
             id="path644" />
          <path
             inkscape:connector-curvature="0"
             d="m 94.3603,708.6236 c 0.031,-0.0832 0.1139,-0.1076 0.2034,-0.0932 l 0.0162,0.003 c 0.1574,0.0332 0.3271,0.1812 0.2688,0.3371 -0.658,1.7627 -0.5919,1.9036 -1.0412,3.7212 -0.095,0.1792 -0.5335,-0.0449 -0.5219,-0.148 0.1004,-0.8179 0.1905,-1.308 0.3161,-1.7508 0.1616,-0.5693 0.3819,-1.0604 0.7586,-2.0693 z"
             style="fill:#1b1918;fill-rule:evenodd"
             id="path646" />
          <path
             inkscape:connector-curvature="0"
             d="m 97.3258,700.665 c 0.2255,-0.2803 0.6988,-0.0957 0.4885,0.1726 -0.6581,1.2328 -0.592,1.3312 -1.0413,2.6023 -0.3289,0.4187 -0.5435,-0.009 -0.5219,-0.1034 0.1004,-0.572 0.2859,-0.9235 0.4115,-1.2331 0.1615,-0.3981 0.2865,-0.7329 0.6632,-1.4384 z"
             style="fill:#1b1918;fill-rule:evenodd"
             id="path648" />
          <path
             inkscape:connector-curvature="0"
             d="m 117.9825,770.2923 c 0.6123,-0.1321 0.5671,1.7455 -0.0258,1.8695 -1.5142,0.3739 -6.5284,0.1737 -8.792,0.4138 -0.387,-0.019 -0.5138,-1.8135 0.0932,-1.8868 2.2408,-0.2376 5.6314,-0.1667 8.7246,-0.3965 z"
             style="fill:#1b1918;fill-rule:evenodd"
             id="path650" />
          <path
             inkscape:connector-curvature="0"
             d="m 118.2842,762.9335 c 0.5756,-0.1261 0.5593,1.5368 0.002,1.6554 -1.4228,0.3537 -6.1546,0.2516 -8.2861,0.4981 -0.3652,-0.011 -0.5101,-1.5978 0.0614,-1.6718 2.1099,-0.2439 5.3087,-0.2319 8.2228,-0.4817 z"
             style="fill:#1b1918;fill-rule:evenodd"
             id="path652" />
          <path
             inkscape:connector-curvature="0"
             d="m 117.7825,756.6634 c 0.5433,-0.1202 0.5038,1.4928 -0.0223,1.6058 -1.3436,0.3379 -5.7931,0.2212 -7.8018,0.4523 -0.3433,-0.012 -0.4565,-1.5518 0.0822,-1.6215 1.9883,-0.2287 4.9971,-0.2052 7.7419,-0.4366 z"
             style="fill:#1b1918;fill-rule:evenodd"
             id="path654" />
          <path
             inkscape:connector-curvature="0"
             d="m 115.8678,752.2607 c 0.5669,0.0335 0.2713,-1.5223 -0.2771,-1.5515 -1.4087,-0.1227 -5.692,0.6781 -7.7544,0.7602 -0.3443,0.0639 -0.2143,1.5722 0.34,1.5575 2.0414,-0.0813 4.8866,-0.5726 7.6915,-0.7662 z"
             style="fill:#1b1918;fill-rule:evenodd"
             id="path656" />
          <path
             inkscape:connector-curvature="0"
             d="m 111.7448,745.2965 c 0.5217,-0.1612 0.8938,1.3735 0.3883,1.5262 -1.2869,0.4388 -5.209,0.581 -7.155,0.9689 -0.3368,0.0159 -0.8398,-1.4314 -0.3185,-1.5427 1.9262,-0.3839 4.4193,-0.5048 7.0852,-0.9524 z"
             style="fill:#1b1918;fill-rule:evenodd"
             id="path658" />
          <path
             inkscape:connector-curvature="0"
             d="m 107.8642,740.7048 c 0.475,-0.1306 0.8455,1.2737 0.3854,1.3971 -1.1733,0.3605 -4.9166,0.3987 -6.681,0.6878 -0.3035,0.002 -0.7304,-1.3563 -0.2575,-1.4406 1.7465,-0.2862 4.1389,-0.3259 6.5531,-0.6443 z"
             style="fill:#1b1918;fill-rule:evenodd"
             id="path660" />
          <path
             inkscape:connector-curvature="0"
             d="m 105.0567,735.9436 c 0.4381,-0.1102 0.7149,1.3024 0.2907,1.406 -1.0835,0.3095 -4.1234,0.1765 -5.7419,0.3901 -0.2764,-0.0101 -0.6066,-1.3799 -0.1725,-1.444 1.6021,-0.2115 3.4123,-0.1368 5.6237,-0.3521 z"
             style="fill:#1b1918;fill-rule:evenodd"
             id="path662" />
          <path
             inkscape:connector-curvature="0"
             d="m 104.0374,731.0156 c 0.4109,-0.1068 0.6916,1.1839 0.2936,1.2844 -1.0159,0.2979 -3.8802,0.2163 -5.4013,0.4335 -0.2603,-0.006 -0.5907,-1.2564 -0.1828,-1.3209 1.5056,-0.2149 3.2112,-0.1704 5.2905,-0.397 z"
             style="fill:#1b1918;fill-rule:evenodd"
             id="path664" />
          <path
             inkscape:connector-curvature="0"
             d="m 103.1462,726.1877 c 0.3753,-0.0906 0.6316,1.0048 0.2682,1.0901 -0.9277,0.2528 -3.5434,0.1835 -4.9324,0.3679 -0.2378,-0.005 -0.5394,-1.0663 -0.167,-1.1211 1.375,-0.1824 2.9325,-0.1446 4.8312,-0.3369 z"
             style="fill:#1b1918;fill-rule:evenodd"
             id="path666" />
          <path
             inkscape:connector-curvature="0"
             d="m 103.632,710.683 c 0.1612,0.0712 0.2268,-1.0809 0.0708,-1.1473 -0.2444,-0.0692 -1.4954,0.0247 -2.086,-0.0822 -0.0997,0.0194 -0.1856,1.139 -0.0271,1.1732 0.5846,0.1058 1.2457,0.193 2.0423,0.0563 z"
             style="fill:#1b1918;fill-rule:evenodd"
             id="path668" />
          <path
             inkscape:connector-curvature="0"
             d="m 104.4391,706.9487 c 0.1574,0.0647 0.2214,-0.9808 0.0692,-1.0411 -0.2387,-0.0628 -1.4605,0.0224 -2.0371,-0.0746 -0.0974,0.0176 -0.1814,1.0336 -0.0265,1.0646 0.5708,0.096 1.2165,0.1751 1.9944,0.0511 z"
             style="fill:#1b1918;fill-rule:evenodd"
             id="path670" />
          <path
             inkscape:connector-curvature="0"
             d="m 105.1475,703.8124 c 0.1514,0.055 0.213,-0.8351 0.0665,-0.8864 -0.2297,-0.0535 -1.4054,0.019 -1.9603,-0.0636 -0.0937,0.015 -0.1745,0.8801 -0.0255,0.9065 0.5493,0.0817 1.1706,0.1491 1.9193,0.0435 z"
             style="fill:#1b1918;fill-rule:evenodd"
             id="path672" />
          <path
             inkscape:connector-curvature="0"
             d="m 105.9182,700.8618 c 0.1653,0.0459 0.2327,-0.6957 0.0726,-0.7385 -0.2508,-0.0445 -1.5347,0.0159 -2.1407,-0.0529 -0.1023,0.0125 -0.1905,0.7332 -0.0278,0.7552 0.5999,0.0681 1.2783,0.1242 2.0959,0.0362 z"
             style="fill:#1b1918;fill-rule:evenodd"
             id="path674" />
        </g>
        <path
           inkscape:connector-curvature="0"
           d="m 71.6163,725.1207 c -0.1302,4.6246 -1.8979,8.2996 -3.851,11.6159 -0.9137,1.3404 -1.7889,2.7168 -2.697,4.0639 l 2.6432,-0.1726 c 2.1751,-0.2012 3.8475,-2.2572 4.8659,-3.5605 1.7011,-1.8885 3.3857,-6.2086 3.8206,-10.3894 z"
           style="fill:#ffcb00;fill-rule:evenodd;stroke:#1b1918;stroke-width:1.4173;stroke-linecap:round;stroke-linejoin:round;stroke-dasharray:none"
           id="path677" />
        <path
           inkscape:connector-curvature="0"
           d="m 108.0123,719.4618 c 2.0937,1.5729 2.388,5.3409 2.329,6.7183 0.0201,1.2308 -0.4087,2.4723 -0.6809,3.6752 l 2.5323,-0.4877 c 2.3311,-0.4664 2.5502,-4.8155 2.8912,-6.6506 -0.3229,-2.4266 -1.8367,-3.8821 -2.4534,-5.245 z"
           style="fill:#ffcb00;fill-rule:evenodd;stroke:#1b1918;stroke-width:1.4173;stroke-linecap:round;stroke-linejoin:round;stroke-dasharray:none"
           id="path679" />
        <path
           inkscape:connector-curvature="0"
           d="m 72.5646,732.2349 c -0.1302,4.6246 -1.898,8.2996 -3.851,11.6159 -0.9138,1.3403 -1.7889,2.7168 -2.697,4.0639 l 2.6432,-0.1727 c 2.1751,-0.2011 3.8474,-2.2571 4.8658,-3.5604 1.7012,-1.8885 3.3858,-6.2086 3.8207,-10.3894 z"
           style="fill:#1b1918;fill-rule:evenodd;stroke:#1b1918;stroke-width:1.4173;stroke-linecap:round;stroke-linejoin:round;stroke-dasharray:none"
           id="path681" />
        <path
           inkscape:connector-curvature="0"
           d="m 112.8136,724.7273 c 2.0937,1.573 2.388,5.3409 2.329,6.7183 0.0201,1.2309 -0.4087,2.4724 -0.681,3.6752 l 2.5324,-0.4876 c 2.3311,-0.4665 2.5502,-4.8155 2.8912,-6.6507 -0.3229,-2.4265 -1.8367,-3.8821 -2.4534,-5.245 z"
           style="fill:#1b1918;fill-rule:evenodd;stroke:#1b1918;stroke-width:1.4173;stroke-linecap:round;stroke-linejoin:round;stroke-dasharray:none"
           id="path683" />
        <path
           inkscape:connector-curvature="0"
           d="m 122.1385,718.0387 c 6.7568,5.0293 14.4645,7.8157 22.8887,8.9122 -10.0675,2.998 -18.5007,0.3366 -26.2687,-4.626 1.6521,-0.8883 2.9291,-2.1629 3.38,-4.2862 z"
           style="fill:#1b1918;fill-rule:evenodd;stroke:#1b1918;stroke-width:0.2835;stroke-linecap:round;stroke-linejoin:round;stroke-dasharray:none"
           id="path685" />
        <path
           inkscape:connector-curvature="0"
           d="m 67.4192,722.59 c 2.6286,2.0761 3.9292,5.3063 3.9025,9.6903 15.9177,7.5815 19.9431,-8.6297 32.3634,-5.4607 5.6077,1.4716 11.227,0.3801 17.6445,-6.2242 1.3559,-1.6211 1.5504,-4.4433 -1.1878,-6.4886 -19.6666,-14.0901 -48.9597,-8.4697 -52.7226,8.4832 z"
           style="fill:#ffcb00;fill-rule:evenodd;stroke:#1b1918;stroke-width:1.4173;stroke-linecap:round;stroke-linejoin:round;stroke-dasharray:none"
           id="path687" />
        <path
           inkscape:connector-curvature="0"
           d="m 58.2711,721.4746 c 1.3074,-1.093 2.2536,-1.4102 4.0126,-1.6019 0.3451,-7.6678 -10.9722,-5.2243 -4.0126,1.6019 z"
           style="fill:#ffcb00;fill-rule:evenodd;stroke:#1b1918;stroke-width:1.4173;stroke-linecap:round;stroke-linejoin:round;stroke-dasharray:none"
           id="path689" />
        <path
           inkscape:connector-curvature="0"
           d="m 71.3218,732.2802 c -7.0169,5.9115 -12.3986,11.4133 -14.2849,16.7499 l -3.6004,-0.2282 c 1.7723,-8.1395 -2.8882,-16.4097 3.2781,-26.1293 1.604,-1.9606 3.7137,-3.0829 5.9119,-2.8712 -4.4135,-5.8462 9.626,-11.3855 4.7926,2.7887 3.081,2.7376 4.2739,5.9977 3.9027,9.6901 z"
           style="fill:#1b1918;fill-rule:evenodd;stroke:#1b1918;stroke-width:1.4173;stroke-linecap:round;stroke-linejoin:round;stroke-dasharray:none"
           id="path691" />
        <path
           inkscape:connector-curvature="0"
           d="m 53.943,742.914 c 2.6847,-1.8254 8.0547,-5.6769 7.0794,-11.2335 -0.2706,-1.5416 -0.2958,-2.741 1.7931,-3.5359 2.1509,-0.8188 3.1832,-3.6302 4.1212,-6.0766 -2.9142,-2.8347 -7.2879,-3.3384 -10.2221,0.6046 -5.1538,8.3771 -2.7386,14.4923 -2.7716,20.2414 z"
           style="fill:#ffcb00;fill-rule:evenodd;stroke:#1b1918;stroke-width:1.4173;stroke-linecap:round;stroke-linejoin:round;stroke-dasharray:none"
           id="path693" />
        <path
           inkscape:connector-curvature="0"
           d="m 93.6702,708.3547 c 3.6111,5.1664 4.3151,10.1784 2.7257,14.843"
           style="fill:#1b1918;fill-rule:evenodd;stroke:#1b1918;stroke-width:1.4173;stroke-linecap:round;stroke-linejoin:round;stroke-dasharray:none"
           id="path695" />
        <path
           inkscape:connector-curvature="0"
           d="m 96.9058,710.1311 c 2.389,3.5639 2.7295,8.139 1.9393,10.8477"
           style="fill:#1b1918;fill-rule:evenodd;stroke:#1b1918;stroke-width:1.4173;stroke-linecap:round;stroke-linejoin:round;stroke-dasharray:none"
           id="path697" />
        <path
           inkscape:connector-curvature="0"
           d="m 62.2315,728.7327 c -0.7684,0.0667 -1.3374,0.7439 -1.2707,1.5125 0.0667,0.7684 0.7439,1.3374 1.5123,1.2707 0.7684,-0.0667 1.3376,-0.7439 1.2709,-1.5123 -0.0669,-0.7686 -0.7439,-1.3376 -1.5125,-1.2709 z"
           style="fill:#ffcb00;fill-rule:evenodd"
           id="path699" />
      </g>
    </g>
  </g>
</svg>
